<?xml version="1.0" encoding="utf-8"?>
<!-- Generator: Adobe Illustrator 16.0.0, SVG Export Plug-In . SVG Version: 6.00 Build 0)  -->
<!DOCTYPE svg PUBLIC "-//W3C//DTD SVG 1.1//EN" "http://www.w3.org/Graphics/SVG/1.1/DTD/svg11.dtd">
<svg version="1.1" id="Layer_1" xmlns="http://www.w3.org/2000/svg" xmlns:xlink="http://www.w3.org/1999/xlink" x="0px" y="0px"
	 width="48px" height="48px" viewBox="44 -8 48 48" enable-background="new 44 -8 48 48" xml:space="preserve">
<g>
	<path fill="none" stroke="#FFFFFF" stroke-width="2" stroke-miterlimit="10" stroke-opacity="0.4" d="M89.386,14.435
		c0.311,0.208,0.521,0.468,0.624,0.78c0.104,0.311,0.172,0.623,0.206,0.937c0.035,0.311-0.008,0.631-0.13,0.959
		c-0.12,0.329-0.284,0.617-0.493,0.859c-0.175,0.138-0.32,0.25-0.44,0.337c-0.123,0.086-0.272,0.165-0.441,0.233
		c-0.176,0.071-0.339,0.121-0.494,0.156c-0.157,0.035-0.339,0.053-0.546,0.053c-0.105,0-0.244-0.009-0.417-0.028
		c-0.173-0.015-0.32-0.06-0.442-0.129c-0.123-0.071-0.26-0.138-0.416-0.207c-0.155-0.069-0.268-0.173-0.336-0.312l-1.455-1.301
		l-4.626,17.877c-0.102,0.279-0.226,0.533-0.364,0.756c-0.139,0.225-0.32,0.415-0.545,0.572c-0.225,0.154-0.46,0.284-0.702,0.389
		c-0.243,0.104-0.52,0.157-0.831,0.157H58.359c-0.313,0-0.591-0.054-0.832-0.157c-0.244-0.104-0.486-0.234-0.729-0.389
		c-0.242-0.157-0.424-0.348-0.546-0.572c-0.122-0.223-0.253-0.477-0.389-0.756l-4.576-17.877l-1.453,1.301
		c-0.209,0.242-0.476,0.424-0.805,0.544c-0.331,0.123-0.652,0.174-0.961,0.156c-0.313-0.018-0.625-0.093-0.938-0.233
		c-0.31-0.138-0.572-0.328-0.778-0.57c-0.278-0.242-0.459-0.53-0.546-0.859c-0.087-0.328-0.14-0.649-0.157-0.959
		c-0.017-0.313,0.054-0.625,0.209-0.937c0.155-0.312,0.339-0.571,0.547-0.78L66.258-3.963c0.207-0.243,0.469-0.417,0.779-0.52
		c0.312-0.104,0.615-0.156,0.909-0.156c0.293,0,0.601,0.052,0.911,0.156c0.312,0.104,0.572,0.277,0.777,0.52L89.386,14.435
		L89.386,14.435z"/>
	<path fill="#FFFFFF" d="M67.771,17.338c0.727,0.034,1.385-0.095,1.975-0.389c0.588-0.295,1.117-0.658,1.584-1.092
		c0.468-0.433,0.833-0.962,1.09-1.584c0.262-0.625,0.409-1.265,0.444-1.923c-0.035-0.729-0.183-1.387-0.444-1.975
		c-0.257-0.589-0.622-1.118-1.09-1.586c-0.467-0.468-0.996-0.831-1.584-1.09c-0.59-0.261-1.248-0.408-1.975-0.442
		c-0.657,0.034-1.3,0.181-1.923,0.442c-0.624,0.259-1.162,0.622-1.61,1.09c-0.452,0.468-0.816,0.997-1.095,1.586
		c-0.275,0.588-0.397,1.246-0.362,1.975c-0.035,0.658,0.087,1.298,0.362,1.923c0.278,0.622,0.643,1.151,1.095,1.584
		c0.448,0.435,0.986,0.797,1.61,1.092C66.472,17.243,67.114,17.372,67.771,17.338z"/>
	<path fill="#FFFFFF" d="M67.823,27.421c0.311-0.033,0.624-0.112,0.935-0.232c0.313-0.122,0.58-0.306,0.807-0.548
		c0.226-0.242,0.406-0.51,0.545-0.804c0.138-0.294,0.19-0.632,0.154-1.013c0.036-0.278-0.017-0.583-0.154-0.911
		c-0.139-0.328-0.319-0.599-0.545-0.805c-0.227-0.21-0.494-0.393-0.807-0.547c-0.311-0.157-0.624-0.216-0.935-0.183
		c-0.383-0.033-0.72,0.025-1.013,0.183c-0.296,0.154-0.564,0.337-0.807,0.547c-0.241,0.206-0.415,0.468-0.52,0.777
		c-0.104,0.313-0.174,0.625-0.209,0.938c0.035,0.347,0.105,0.676,0.209,0.987c0.104,0.309,0.278,0.579,0.52,0.805
		c0.242,0.223,0.511,0.406,0.807,0.547c0.293,0.138,0.63,0.205,1.013,0.205V27.421z"/>
</g>
</svg>
