<?xml version="1.0" encoding="utf-8"?>
<!-- Generator: Adobe Illustrator 18.0.0, SVG Export Plug-In . SVG Version: 6.00 Build 0)  -->
<!DOCTYPE svg PUBLIC "-//W3C//DTD SVG 1.1//EN" "http://www.w3.org/Graphics/SVG/1.1/DTD/svg11.dtd">
<svg version="1.1" id="Layer_1" xmlns="http://www.w3.org/2000/svg" xmlns:xlink="http://www.w3.org/1999/xlink" x="0px" y="0px"
	 viewBox="0 0 85.4 85.4" enable-background="new 0 0 85.4 85.4" xml:space="preserve">
<path fill="#404041" d="M85.4,84c0,0.8-0.6,1.4-1.4,1.4c0,0-40.6,0-41.3,0C19.1,85.4,0,66.3,0,42.7C0,19.1,19.1,0,42.7,0
	s42.7,19.1,42.7,42.7C85.4,43.3,85.4,84,85.4,84z"/>
<path fill="#D1D1D1" d="M74.5,73.3V50.5l-10.1-8.3v20.6L45.7,49.2c-0.6,0-12,0-12,0v35.2c2.9,0.6,5.9,0.9,8.9,0.9
	c0.4,0,15.6,0,27.4,0c-0.2-3.9-0.4-8.5-0.5-12.1H74.5z"/>
<path fill="#FE6702" d="M63,85.4c10.4,0,21,0,21,0c0.8,0,1.4-0.6,1.4-1.4c0,0,0-10.5,0-21C73.5,64,64,73.5,63,85.4z"/>
<path fill="#B94A02" d="M63,85.4c10.4,0,21,0,21,0c0.5,0,0.9-0.2,1.1-0.6L70.2,70C66.2,74,63.5,79.4,63,85.4z"/>
<circle opacity="0.4" fill="#7E8082" cx="42.7" cy="42.7" r="32"/>
<circle fill="#FFFFFF" cx="54.1" cy="50.2" r="20.4"/>
<circle fill="#404041" cx="61.1" cy="57.2" r="5"/>
</svg>
