<?xml version="1.0" encoding="utf-8"?>
<!-- Generator: Adobe Illustrator 16.0.0, SVG Export Plug-In . SVG Version: 6.00 Build 0)  -->
<!DOCTYPE svg PUBLIC "-//W3C//DTD SVG 1.1//EN" "http://www.w3.org/Graphics/SVG/1.1/DTD/svg11.dtd">
<svg version="1.1" id="Layer_1" xmlns="http://www.w3.org/2000/svg" xmlns:xlink="http://www.w3.org/1999/xlink" x="0px" y="0px"
	 width="32px" height="32px" viewBox="0 0 32 32" enable-background="new 0 0 32 32" xml:space="preserve">
<g>
	<g>
		<path fill="#FFFFFF" d="M28.866,15.593c-0.427,0-0.769,0.342-0.769,0.769v6.998c0,1.903-1.551,3.448-3.446,3.448H7.77
			c-1.904,0-3.448-1.551-3.448-3.448v-7.112c0-0.427-0.342-0.768-0.769-0.768c-0.428,0-0.77,0.341-0.77,0.768v7.112
			c0,2.753,2.24,4.987,4.987,4.987h16.882c2.752,0,4.985-2.239,4.985-4.987v-6.998C29.637,15.94,29.293,15.593,28.866,15.593z"/>
		<path fill="#FFFFFF" d="M15.667,22.239c0.149,0.146,0.348,0.228,0.542,0.228c0.195,0,0.394-0.075,0.542-0.228l4.89-4.891
			c0.303-0.303,0.303-0.787,0-1.088c-0.303-0.303-0.787-0.303-1.089,0l-3.572,3.578V4.229c0-0.428-0.343-0.77-0.77-0.77
			c-0.427,0-0.77,0.342-0.77,0.77v15.608l-3.578-3.578c-0.303-0.303-0.787-0.303-1.089,0c-0.302,0.301-0.302,0.786,0,1.088
			L15.667,22.239z"/>
	</g>
</g>
</svg>
